<?xml version="1.0" standalone="no"?><!DOCTYPE svg PUBLIC "-//W3C//DTD SVG 1.1//EN" "http://www.w3.org/Graphics/SVG/1.1/DTD/svg11.dtd"><svg t="1650341736650" class="icon" viewBox="0 0 1024 1024" version="1.1" xmlns="http://www.w3.org/2000/svg" p-id="6692" xmlns:xlink="http://www.w3.org/1999/xlink" width="200" height="200"><defs><style type="text/css">@font-face { font-family: feedback-iconfont; src: url("//at.alicdn.com/t/font_1031158_u69w8yhxdu.woff2?t=1630033759944") format("woff2"), url("//at.alicdn.com/t/font_1031158_u69w8yhxdu.woff?t=1630033759944") format("woff"), url("//at.alicdn.com/t/font_1031158_u69w8yhxdu.ttf?t=1630033759944") format("truetype"); }
</style></defs><path d="M0.491998 51.639798l17.88993 127.905501c4.507982 32.235874 28.12589 60.187765 59.523768 70.453724l101.843602 33.31187 71.953719-30.74988 31.607876-72.811715L249.999023 77.905696c-10.26596-31.389877-38.225851-55.015785-70.453724-59.523768L51.639798 0.491998C20.795919-3.819985-3.819985 20.795919 0.491998 51.639798z m0 0" fill="#A7B6C5" p-id="6693"></path><path d="M283.310893 179.749298l-103.561595 103.561595s70.483725 223.711126 259.310987 383.764501c130.64749 110.741567 300.882825 255.515002 393.382463 334.210695 37.835852 32.185874 94.039633 29.913883 129.163496-5.21198l34.467865-34.467865c35.125863-35.125863 37.399854-91.327643 5.21198-129.163496-78.703693-92.491639-223.469127-262.734974-334.210695-393.382463-160.053375-188.819262-383.764501-259.310987-383.764501-259.310987z m0 0" fill="#E7896E" p-id="6694"></path><path d="M732.551138 663.707407c17.79793-26.779895 35.133863-59.319768 49.633807-88.991652a181390.909442 181390.909442 0 0 1-115.109551-135.65547c-75.359706-88.905653-164.827356-151.569408-238.413068-193.007246-55.983781 93.843633-124.647513 161.24137-171.991329 200.999215 41.257839 69.765727 100.765606 150.835411 182.389288 220.02314 80.819684 68.499732 176.76531 150.007414 260.108984 220.859138-4.125984-30.155882-5.905977-60.125765-6.547975-86.617662-1.179995-48.865809 12.87595-96.881622 39.929844-137.609463z m0 0" fill="#DD6642" p-id="6695"></path><path d="M179.749298 283.310893s70.483725 223.711126 259.310987 383.764501L667.077394 439.060285c-160.053375-188.819262-383.764501-259.310987-383.764501-259.310987z m0 0" fill="#EEDB00" p-id="6696"></path><path d="M439.060285 667.077394L667.077394 439.058285c-75.359706-88.905653-164.827356-151.577408-238.413068-193.007246-55.983781 93.843633-124.647513 161.24137-171.991329 200.999215 41.257839 69.765727 100.765606 150.835411 182.389288 220.02314z m0 0" fill="#DFCA00" p-id="6697"></path><path d="M793.012902 967.73822c14.265944 12.133953 27.507893 23.399909 39.429846 33.547869 37.835852 32.185874 94.029633 29.913883 129.163496-5.21198l34.467865-34.467865c35.125863-35.125863 37.399854-91.319643 5.20398-129.155496-10.13996-11.929953-21.405916-25.171902-33.539869-39.429846z m0 0" fill="#6A829A" p-id="6698"></path><path d="M138.631458 116.779544l103.827595 103.819594-21.859915 21.853915-103.819594-103.819595z m0 0" fill="#516980" p-id="6699"></path><path d="M103.561595 991.246128l-70.811723-70.811723c-43.663829-43.663829-43.663829-114.469553 0-158.139383l138.789458-138.789458L400.490436 852.45667l-138.787458 138.789458c-43.671829 43.671829-114.469553 43.671829-158.139383 0z m0 0" fill="#FFB3C2" p-id="6700"></path><path d="M291.530861 961.416244l108.959575-108.959574L171.53933 623.505564l-138.789458 138.787458c-43.663829 43.671829-43.663829 114.477553 0 158.139383l13.545947 13.547947c18.101929-44.733825 76.031703-62.951754 117.445541-31.859876 77.093699 57.859774 127.789501 59.297768 127.789501 59.297768z m0 0" fill="#FF899F" p-id="6701"></path><path d="M307.756798 945.192308L78.803692 716.237202l636.897512-636.887512a190.519256 190.519256 0 0 1 96.803622-51.991797L940.214327 1.437994c49.015809-9.953961 92.297639 33.33587 82.343679 82.351679l-25.919899 127.701501a190.515256 190.515256 0 0 1-51.993797 96.811622z m0 0" fill="#FFBD86" p-id="6702"></path><path d="M924.292389 235.881079c-16.983934 0.094-30.77188-13.693947-30.67988-30.679881l0.204-34.779864c0.133999-22.279913-17.96793-40.381842-40.257843-40.249842l-34.765864 0.203999c-16.983934 0.092-30.77988-13.695947-30.679881-30.67988l0.391999-65.805743a190.535256 190.535256 0 0 0-72.803716 45.459822L78.803692 716.241202 307.758798 945.192308l636.887512-636.889512a190.593255 190.593255 0 0 0 45.459822-72.803716z m0 0" fill="#F9EE80" p-id="6703"></path><path d="M140.531451 777.964961l105.499588 105.499588 656.519435-656.511436a30.413881 30.413881 0 0 1-8.927965-21.749915l0.201999-34.773864c0.126-22.289913-17.97593-40.389842-40.265842-40.259842l-34.765864 0.205999a30.387881 30.387881 0 0 1-21.739915-8.939965z m0 0" fill="#6A829A" p-id="6704"></path><path d="M309.544791 946.980301L77.015699 714.451209c-29.539885-29.539885-29.539885-77.429698 0-106.969582 29.539885-29.545885 77.437698-29.545885 106.975582 0l232.531092 232.531092c29.539885 29.539885 29.539885 77.429698 0 106.967582-29.539885 29.539885-77.437698 29.539885-106.977582 0z m0 0" fill="#A7B6C5" p-id="6705"></path><path d="M157.617384 688.077312c29.539885-29.539885 77.427698-29.539885 106.975582 0l-80.599685-80.595685c-29.539885-29.545885-77.439698-29.545885-106.979582 0-29.537885 29.539885-29.537885 77.429698 0 106.969582l80.603685 80.599685c-29.539885-29.539885-29.539885-77.429698 0-106.975582z m0 0" fill="#889CB0" p-id="6706"></path><path d="M1008.926059 150.96741l13.631947-67.179737C1032.511967 34.775864 989.230136-8.513967 940.216327 1.439994l-67.185737 13.639947c8.631966 28.725888 26.209898 58.335772 51.881797 84.007672 25.6719 25.6719 55.279784 43.249831 84.015672 51.881797z m0 0" fill="#6A829A" p-id="6707"></path><path d="M168.91334 127.709501c0 22.759911-18.445928 41.211839-41.203839 41.211839-22.755911 0-41.209839-18.453928-41.209839-41.211839 0-22.755911 18.453928-41.209839 41.209839-41.209839 22.759911 0 41.203839 18.453928 41.203839 41.209839z m0 0" fill="#516980" p-id="6708"></path></svg>